<?xml version="1.0" encoding="utf-8"?>
<!-- Generator: Adobe Illustrator 25.4.1, SVG Export Plug-In . SVG Version: 6.00 Build 0)  -->
<svg version="1.1" id="Capa_1" xmlns="http://www.w3.org/2000/svg" xmlns:xlink="http://www.w3.org/1999/xlink" x="0px" y="0px"
	 viewBox="0 0 100 100" style="enable-background:new 0 0 100 100;" xml:space="preserve">
<style type="text/css">
	.st0{fill:#49498A;}
	.st1{fill:#DDDDE9;}
	.st2{fill:#B0B0CC;}
	.st3{fill:#8181AD;}
	.st4{fill:#0F3375;}
	.st5{fill:#AAAAC8;}
	.st6{fill:#4F4C8B;}
	.st7{fill:#BEC2D7;}
	.st8{fill:#60659C;}
	.st9{fill:#595491;}
	.st10{fill:#B6B3CE;}
	.st11{fill:#3C3F83;}
	.st12{fill:#C8C8DB;}
	.st13{fill:#B8B4CF;}
	.st14{fill:#A0A4C5;}
	.st15{fill:#D6DAE7;}
	.st16{fill:#E5E5EE;}
	.st17{fill:#8984AF;}
	.st18{fill:#8B87B1;}
	.st19{fill:#6C72A4;}
	.st20{fill:#959BBE;}
	.st21{fill:#DDDAE7;}
	.st22{fill:#CAE9FF;}
	.st23{fill:#00005B;}
</style>
<path class="st0" d="M80.4,6.1c-0.1,0-0.3,0-0.4-0.1C80.2,6,80.3,6,80.4,6.1C80.5,6,80.5,6,80.4,6.1C80.5,6.1,80.4,6.1,80.4,6.1z"/>
<path class="st0" d="M23,6c-0.1,0.1-0.3,0.1-0.4,0.1c0,0,0,0,0-0.1c0,0,0,0,0,0C22.7,6,22.8,6,23,6z"/>
<path class="st1" d="M21.9,6.1C21.9,6,21.9,6,21.9,6.1C22,6,22.1,6,22.1,6c0,0,0,0,0,0c0,0,0,0,0,0C22.1,6.1,22,6.1,21.9,6.1z"/>
<path class="st2" d="M22.1,6.1C22.1,6,22.1,6,22.1,6.1C22.2,6,22.3,6,22.4,6c0,0,0,0,0,0c0,0,0,0,0,0C22.3,6.1,22.2,6.1,22.1,6.1z"
	/>
<path class="st1" d="M81.1,6C81.1,6,81.1,6,81.1,6c-0.1,0.1-0.2,0.1-0.2,0.1c0,0,0,0,0,0c0,0,0,0,0,0C80.9,6,81,6,81.1,6z"/>
<path class="st2" d="M80.8,6C80.8,6,80.8,6,80.8,6c-0.1,0.1-0.2,0.1-0.2,0.1c0,0,0,0,0,0c0,0,0,0,0,0C80.7,6,80.8,6,80.8,6z"/>
<path class="st3" d="M22.4,6.1C22.4,6,22.4,6,22.4,6.1C22.4,6,22.5,6,22.6,6c0,0,0,0.1,0,0.1C22.5,6.1,22.4,6.1,22.4,6.1z"/>
<path class="st3" d="M80.6,6C80.6,6,80.6,6,80.6,6c-0.1,0.1-0.1,0.1-0.2,0.1c0,0,0,0,0-0.1C80.5,6,80.5,6,80.6,6z"/>
<g>
	<path class="st4" d="M0.2,81.5c0-21,0-42,0-62.9c0.1-0.3,0.1-0.7,0.1-1c0-0.1,0-0.2,0-0.4c0.1-1.7,0.6-3.4,1.2-4.9
		C2.5,10,3.8,8.1,5.5,6.4c2.5-2.4,5.4-4,8.8-4.7c0.6-0.1,1.3-0.1,1.9-0.2c0.1,0,0.2,0,0.3,0c0.1,0,0.2,0,0.3,0c0.1,0,0.1,0,0.2,0
		c0.2,0,0.3,0,0.5,0c21.8,0,43.6,0,65.3,0c0.1,0.1,0.3,0,0.5,0c0.1,0,0.1,0,0.2,0c0.1,0,0.2,0,0.3,0c0.1,0,0.2,0,0.3,0
		c1.9,0,3.7,0.6,5.4,1.3c2.1,0.9,3.9,2.2,5.5,3.8c2.4,2.5,3.9,5.3,4.6,8.7c0.1,0.6,0.2,1.3,0.2,2c0,0.1,0,0.1,0,0.2
		c0,0.1,0,0.2,0,0.3c0,0.1,0,0.1,0,0.2c0,0.2,0,0.3,0,0.5c0,20.9,0,41.9,0,62.8c-0.1,0.1,0,0.3,0,0.4c0,0.1,0,0.1,0,0.2
		c0,0.1,0,0.2,0,0.3c0,0.1,0,0.2,0,0.3c0,1.9-0.5,3.6-1.2,5.3c-1.6,3.8-4.3,6.7-8,8.7c-1.9,1-3.9,1.7-6,1.9c-0.4,0-0.8,0-1.2,0.1
		c-0.1,0-0.2,0-0.3,0c-0.1,0-0.3,0-0.4,0c-21.7,0-43.4,0-65.1,0c-0.1,0-0.3,0-0.4,0c-0.1,0-0.2,0-0.3,0c-1.6,0-3.2-0.3-4.7-0.9
		c-4.1-1.5-7.3-4.1-9.5-7.9c-1.1-1.8-1.8-3.7-2.1-5.8c-0.1-0.3-0.1-0.7-0.1-1c0-0.2,0-0.5,0-0.7c0-0.1,0-0.1,0-0.2
		C0.3,81.8,0.3,81.6,0.2,81.5z"/>
	<path class="st5" d="M17.4,98.4c0.3,0,0.6,0,0.9,0c21.2,0,42.4,0,63.6,0c0.3,0,0.6,0,0.9,0c0,0,0,0,0,0.1c0,0,0,0,0,0
		C60.9,98.5,39.2,98.5,17.4,98.4C17.4,98.5,17.3,98.5,17.4,98.4C17.4,98.4,17.4,98.4,17.4,98.4z"/>
	<path class="st6" d="M0.4,17.5c0,0.4,0,0.7-0.2,1.1c0-0.2,0-0.3,0-0.5c0.1-0.1,0-0.2,0-0.2C0.3,17.7,0.2,17.6,0.4,17.5L0.4,17.5
		C0.4,17.5,0.4,17.4,0.4,17.5z"/>
	<path class="st7" d="M0.4,82.9c-0.1-0.1,0-0.3-0.2-0.4c0-0.1,0-0.3,0-0.4c0-0.1,0.1-0.1,0.1,0C0.4,82.4,0.5,82.6,0.4,82.9z"/>
	<path class="st8" d="M0.2,81.5c0.1,0.1,0.1,0.3,0.1,0.5c0,0.1-0.1,0.1-0.1,0C0.2,81.8,0.2,81.6,0.2,81.5z"/>
	<path class="st9" d="M99.8,18.5c-0.1-0.1-0.1-0.3-0.1-0.5c0,0,0.1,0,0.1,0C99.8,18.2,99.8,18.4,99.8,18.5z"/>
	<path class="st10" d="M0.3,17.5c0,0.1,0,0.2,0,0.4c0,0.1,0,0.1-0.1,0c0-0.1,0-0.3,0-0.4C0.3,17.5,0.3,17.5,0.3,17.5z"/>
	<path class="st11" d="M99.7,81.8c0-0.1,0-0.3,0.1-0.4C99.8,81.5,99.8,81.6,99.7,81.8C99.7,81.8,99.7,81.8,99.7,81.8z"/>
	<path class="st12" d="M17.4,98.4C17.4,98.4,17.4,98.5,17.4,98.4c-0.1,0.1-0.3,0.1-0.4,0.1c0,0,0,0,0-0.1c0,0,0,0,0,0
		C17.1,98.4,17.3,98.4,17.4,98.4z"/>
	<path class="st12" d="M82.7,98.5C82.7,98.5,82.7,98.4,82.7,98.5c0.1-0.1,0.3-0.1,0.4-0.1c0,0,0,0,0,0.1c0,0,0,0,0,0
		C83,98.5,82.8,98.5,82.7,98.5z"/>
	<path class="st13" d="M99.7,17.9c0-0.1,0-0.2,0-0.3c0,0,0.1,0,0.1,0C99.8,17.7,99.8,17.8,99.7,17.9C99.7,17.9,99.7,17.9,99.7,17.9z
		"/>
	<path class="st14" d="M99.7,82.2c0-0.1,0-0.2,0-0.3c0-0.1,0-0.1,0.1,0C99.8,82,99.8,82.1,99.7,82.2C99.7,82.3,99.7,82.3,99.7,82.2z
		"/>
	<path class="st15" d="M99.7,82.2C99.7,82.2,99.7,82.2,99.7,82.2c0.1,0.1,0.1,0.2,0.1,0.3l0,0c0,0,0,0,0,0
		C99.7,82.4,99.7,82.3,99.7,82.2z"/>
	<path class="st16" d="M17,98.4C17,98.4,17,98.5,17,98.4c-0.1,0.1-0.2,0.1-0.3,0.1c0,0,0-0.1,0-0.1C16.8,98.4,16.9,98.4,17,98.4z"/>
	<path class="st16" d="M83.1,98.5C83.1,98.5,83.1,98.4,83.1,98.5c0.1-0.1,0.2-0.1,0.3-0.1c0,0,0,0.1,0,0.1
		C83.3,98.5,83.2,98.5,83.1,98.5z"/>
	<path class="st17" d="M0.2,17.9C0.3,17.9,0.3,17.9,0.2,17.9c0.1,0.1,0.1,0.1,0,0.2C0.2,18,0.2,17.9,0.2,17.9z"/>
	<path class="st18" d="M99.7,17.9C99.7,17.9,99.7,17.9,99.7,17.9c0.1,0.1,0.1,0.1,0.1,0.2c0,0-0.1,0-0.1,0
		C99.7,18,99.7,17.9,99.7,17.9z"/>
	<path class="st19" d="M99.8,81.9C99.7,81.9,99.7,81.9,99.8,81.9c-0.1-0.1-0.1-0.1-0.1-0.2c0,0,0.1,0,0.1,0
		C99.8,81.8,99.8,81.9,99.8,81.9z"/>
	<path class="st20" d="M0.2,81.9c0,0,0.1,0,0.1,0c0,0.1,0,0.1,0,0.2c0,0-0.1,0-0.1,0C0.2,82.1,0.2,82,0.2,81.9z"/>
	<path class="st21" d="M99.8,17.6C99.7,17.6,99.7,17.6,99.8,17.6c-0.1-0.1-0.1-0.1-0.1-0.2c0,0,0.1,0,0.1,0
		C99.8,17.5,99.8,17.5,99.8,17.6z"/>
	<path class="st22" d="M48.6,69.7c-1.4,0-2.7,0-4.1,0c-0.6,0-0.7-0.1-0.9-0.7c-1-3-2.1-6.1-3.1-9.1c-0.1-0.4-0.1-0.4-0.6-0.4
		c-4.8,0-9.6,0-14.3,0c-0.1,0-0.2,0-0.3,0c-0.3,0-0.4,0.1-0.5,0.3c-0.5,1.5-1,3.1-1.5,4.6c-0.5,1.6-1,3.1-1.5,4.7
		c-0.2,0.6-0.3,0.7-1,0.7c-2.4,0-4.8,0-7.2,0c-0.9,0-1.1-0.2-0.8-1.1c1.5-4.2,2.9-8.4,4.4-12.5c2.9-8.3,5.8-16.7,8.7-25
		c0.5-1.4,0.8-2.8,0.8-4.2c0-0.5,0.1-0.6,0.6-0.6c1.7,0,3.4,0,5.2,0c1.6,0,3.3,0,4.9,0c0.1,0,0.3,0,0.4,0c0.3,0,0.5,0.2,0.7,0.5
		c0.7,2,1.4,4,2.2,6.1c4.2,11.8,8.5,23.7,12.7,35.5c0.1,0.2,0.1,0.4,0.2,0.6c0.1,0.4,0,0.6-0.4,0.6c-0.4,0-0.9,0-1.3,0
		C50.7,69.7,49.7,69.7,48.6,69.7z"/>
	<path class="st22" d="M82.6,65.1c0,1,0,2,0,3c0,0.6-0.2,0.9-0.7,1.1c-1.7,0.7-3.4,1.1-5.2,1.3c-2.2,0.3-4.4,0.4-6.6,0.2
		c-2.9-0.2-5.7-1-8.2-2.7c-3-2.1-4.8-4.9-5.8-8.3c-0.7-2.4-0.9-4.8-0.7-7.3c0.3-3.9,1.4-7.4,3.9-10.5c1.6-2.1,3.7-3.6,6.1-4.6
		c1.2-0.5,2.4-0.7,3.6-0.8c1.1-0.1,2.2-0.2,3.4-0.1c3.1,0.2,5.9,1,8.3,3c1.8,1.4,2.9,3.3,3.7,5.4c1,2.4,1.2,4.9,1.1,7.4
		c-0.1,1-0.1,1.9-0.2,2.9c-0.1,0.4-0.2,0.6-0.6,0.6c-1.2,0-2.3,0.2-3.5,0.2c-0.8,0-1.5-0.1-2.3-0.1c-0.6,0-1.2-0.1-1.8-0.1
		c-3.9,0-7.8,0-11.7,0c-0.6,0-0.6,0-0.5,0.6c0.3,1.4,0.8,2.7,1.7,3.8c0.6,0.7,1.4,1.3,2.3,1.7c1.9,0.8,3.8,1.2,5.8,1.1
		c2.2-0.1,4.3-0.4,6.4-1c0.4-0.1,0.8-0.3,1.2-0.4c0.3-0.1,0.4-0.1,0.4,0.2c0,0.5,0,0.9,0,1.4C82.6,63.8,82.6,64.5,82.6,65.1z"/>
	<path class="st10" d="M0.4,17.5C0.4,17.5,0.4,17.5,0.4,17.5c-0.1-0.1-0.1-0.3,0-0.4C0.4,17.2,0.4,17.4,0.4,17.5z"/>
	<path class="st23" d="M32.5,34.1c0.2,0.8,0.4,1.5,0.6,2.3c0.9,3.2,2,6.4,2.9,9.6c0.5,1.6,1,3.2,1.5,4.8c0.2,0.5,0.3,0.5-0.4,0.5
		c-3.1,0-6.2,0-9.4,0c-0.1,0-0.2,0-0.3,0c-0.3,0-0.3,0-0.2-0.3c0.1-0.4,0.3-0.9,0.4-1.3c0.9-2.6,1.5-5.2,2.4-7.8
		c0.7-2.2,1.4-4.4,1.9-6.6c0.1-0.4,0.2-0.8,0.3-1.2C32.4,34.1,32.5,34.1,32.5,34.1z"/>
	<path class="st23" d="M70.4,49.7c-1.7,0-3.3,0-5,0c-0.1,0-0.2,0-0.3,0c-0.3,0-0.3,0-0.3-0.3c0.3-1.7,0.9-3.3,2.3-4.4
		c1-0.8,2.2-1.3,3.5-1.3c0.9,0,1.8,0,2.6,0.3c2.1,0.8,3.6,2.8,3.6,5.1c0,0.4,0,0.5-0.4,0.6c-0.3,0.1-0.5,0.1-0.8,0.1
		c-0.9,0-1.7,0-2.6,0C72.1,49.7,71.2,49.7,70.4,49.7z"/>
</g>
</svg>
