<?xml version="1.0" encoding="utf-8"?>
<!-- Generator: Adobe Illustrator 25.4.1, SVG Export Plug-In . SVG Version: 6.00 Build 0)  -->
<svg version="1.1" id="Capa_1" xmlns="http://www.w3.org/2000/svg" xmlns:xlink="http://www.w3.org/1999/xlink" x="0px" y="0px"
	 viewBox="0 0 1400 411" style="enable-background:new 0 0 1400 411;" xml:space="preserve">
<style type="text/css">
	.st0{clip-path:url(#SVGID_00000057861183212829457570000016319172254725480114_);}
	.st1{fill:url(#SVGID_00000183940822990876136340000009643236551900432829_);}
	
		.st2{opacity:0.18;clip-path:url(#SVGID_00000075865845107003893670000004496450962118272650_);fill:url(#SVGID_00000069394961642644992190000017358462313219397514_);enable-background:new    ;}
	.st3{clip-path:url(#SVGID_00000171718139255183411030000007947534794470588545_);}
	.st4{fill:url(#SVGID_00000107552171286721459630000001126783198492607636_);}
	
		.st5{opacity:0.28;clip-path:url(#SVGID_00000057849945991655461790000008653284053367669133_);fill:url(#SVGID_00000127744598658433565950000011645218561283764370_);enable-background:new    ;}
	
		.st6{opacity:0.28;clip-path:url(#SVGID_00000121274388741073739590000007452208004722488973_);fill:url(#SVGID_00000085933063618146761360000015149862904335096709_);enable-background:new    ;}
	.st7{clip-path:url(#SVGID_00000052802002766660513070000001431856091516172193_);}
	.st8{fill:#B0F9FF;}
	.st9{fill:url(#SVGID_00000069371633397231865470000015302553027122849445_);}
	.st10{fill:url(#SVGID_00000121240245573078386840000009603564761722932901_);}
	.st11{fill:url(#SVGID_00000058571952895302738000000014113270844229673886_);}
	.st12{fill:url(#SVGID_00000116217748244047349580000003060283286799359412_);}
	.st13{fill:url(#SVGID_00000152237586305851197610000012605683379171782078_);}
	.st14{fill:url(#SVGID_00000150794628573055624080000010534042377903607701_);}
	.st15{fill:url(#SVGID_00000160891092701424447870000006026993140154996890_);}
	.st16{fill:url(#SVGID_00000086677348073517977410000017899653244749526414_);}
	.st17{fill:url(#SVGID_00000143585481936470869940000014496427294798103478_);}
	.st18{fill:url(#SVGID_00000053514639792200283960000006266854075806014613_);}
	.st19{fill:url(#SVGID_00000121261921078777551790000015532348521732060573_);}
	.st20{clip-path:url(#SVGID_00000047048270269604207020000018190588040286879130_);}
	.st21{fill:#0072BE;}
	.st22{fill:#087DC4;}
	.st23{fill:#1088CA;}
	.st24{fill:#1893D0;}
	.st25{fill:#209ED6;}
	.st26{fill:#28A9DC;}
	.st27{fill:#31B5E1;}
	.st28{fill:#39C0E7;}
	.st29{fill:#41CBED;}
	.st30{fill:#49D6F3;}
	.st31{fill:#51E1F9;}
	.st32{fill:#59ECFF;}
</style>
<g>
	<g>
		<defs>
			<rect id="SVGID_1_" y="0.7" width="1400" height="410.3"/>
		</defs>
		<clipPath id="SVGID_00000031176316723595471840000006415709963347068076_">
			<use xlink:href="#SVGID_1_"  style="overflow:visible;"/>
		</clipPath>
		<g style="clip-path:url(#SVGID_00000031176316723595471840000006415709963347068076_);">
			
				<linearGradient id="SVGID_00000124151207722682427340000007089333766617682863_" gradientUnits="userSpaceOnUse" x1="641.3618" y1="207.8753" x2="2085.238" y2="207.8753" gradientTransform="matrix(-1 0 0 -1 2041.3423 400)">
				<stop  offset="5.327789e-09" style="stop-color:#43C1C2"/>
				<stop  offset="0.9887" style="stop-color:#FFFFFF"/>
			</linearGradient>
			<path style="fill:url(#SVGID_00000124151207722682427340000007089333766617682863_);" d="M-43.9,25.2
				C746.3,435.4,931.5-45.6,1400,22.5v326.8C757.7,130.5,746.3,604.9-43.9,194.7V25.2z"/>
		</g>
	</g>
	<g>
		<defs>
			<rect id="SVGID_00000142153828673279931640000004859573239184479658_" y="0.7" width="1400" height="410.3"/>
		</defs>
		<clipPath id="SVGID_00000017499862576221751000000002755409817790420654_">
			<use xlink:href="#SVGID_00000142153828673279931640000004859573239184479658_"  style="overflow:visible;"/>
		</clipPath>
		
			<linearGradient id="SVGID_00000055709509600474505930000000936483577787474334_" gradientUnits="userSpaceOnUse" x1="641.3618" y1="171.7525" x2="2085.238" y2="171.7525" gradientTransform="matrix(-1 0 0 -1 2041.3423 400)">
			<stop  offset="0" style="stop-color:#00BFA7"/>
			<stop  offset="0.9887" style="stop-color:#FFFFFF"/>
		</linearGradient>
		
			<path style="opacity:0.18;clip-path:url(#SVGID_00000017499862576221751000000002755409817790420654_);fill:url(#SVGID_00000055709509600474505930000000936483577787474334_);enable-background:new    ;" d="
			M-43.9,97.4v97.3C746.3,604.9,757.7,130.5,1400,349.2V94.7C931.5,26.6,746.3,507.6-43.9,97.4z"/>
	</g>
	<g>
		<defs>
			<rect id="SVGID_00000141446560390264245150000003353246887062453936_" y="0.7" width="1400" height="410.3"/>
		</defs>
		<clipPath id="SVGID_00000159446701198204877610000012146424847058916027_">
			<use xlink:href="#SVGID_00000141446560390264245150000003353246887062453936_"  style="overflow:visible;"/>
		</clipPath>
		<g style="clip-path:url(#SVGID_00000159446701198204877610000012146424847058916027_);">
			
				<linearGradient id="SVGID_00000001644127673371733070000014675446812697115805_" gradientUnits="userSpaceOnUse" x1="-0.1264" y1="193.8174" x2="1580.8334" y2="193.8174" gradientTransform="matrix(1 0 0 -1 0 400)">
				<stop  offset="0" style="stop-color:#00BFA7"/>
				<stop  offset="1" style="stop-color:#3364EB"/>
			</linearGradient>
			<path style="fill:url(#SVGID_00000001644127673371733070000014675446812697115805_);" d="M1580.8,23.5
				C715.6,486.7,600-110.7-0.1,20.4v369c703.2-247,715.7,288.7,1581-174.5V23.5z"/>
		</g>
	</g>
	<g>
		<defs>
			<rect id="SVGID_00000083063490478028347370000003323890821514889104_" y="0.7" width="1400" height="410.3"/>
		</defs>
		<clipPath id="SVGID_00000181074874512610234080000002245182651664655241_">
			<use xlink:href="#SVGID_00000083063490478028347370000003323890821514889104_"  style="overflow:visible;"/>
		</clipPath>
		
			<linearGradient id="SVGID_00000093175150169377727140000000373722363231703731_" gradientUnits="userSpaceOnUse" x1="-0.4375" y1="150.8462" x2="1572.5792" y2="150.8462" gradientTransform="matrix(1 0 0 -1 0 400)">
			<stop  offset="1.065558e-08" style="stop-color:#43C1C2"/>
			<stop  offset="1" style="stop-color:#3364EB"/>
		</linearGradient>
		
			<path style="opacity:0.28;clip-path:url(#SVGID_00000181074874512610234080000002245182651664655241_);fill:url(#SVGID_00000093175150169377727140000000373722363231703731_);enable-background:new    ;" d="
			M-0.4,118.7v270.9c699.7-245.8,712.1,287.3,1573-173.6V87.1C680.9,510.5,596.7-11.8-0.4,118.7z"/>
	</g>
	<g>
		<defs>
			<rect id="SVGID_00000084510454990100749010000009818688449413634219_" y="0.7" width="1400" height="410.3"/>
		</defs>
		<clipPath id="SVGID_00000081627893986322164350000004859065967120696756_">
			<use xlink:href="#SVGID_00000084510454990100749010000009818688449413634219_"  style="overflow:visible;"/>
		</clipPath>
		
			<linearGradient id="SVGID_00000078023853717679851570000006244759127360297614_" gradientUnits="userSpaceOnUse" x1="-0.1264" y1="245.7376" x2="1399.9806" y2="245.7376" gradientTransform="matrix(1 0 0 -1 0 400)">
			<stop  offset="1.065558e-08" style="stop-color:#43C1C2"/>
			<stop  offset="1" style="stop-color:#3364EB"/>
		</linearGradient>
		
			<path style="opacity:0.28;clip-path:url(#SVGID_00000081627893986322164350000004859065967120696756_);fill:url(#SVGID_00000078023853717679851570000006244759127360297614_);enable-background:new    ;" d="
			M-0.1,65.1v34C531.3-16.9,633.7,512.1,1400,101.9v-34C633.7,478.1,531.4-51-0.1,65.1z"/>
	</g>
	<g>
		<defs>
			<rect id="SVGID_00000174587535516237845330000015178012564341173415_" y="0.7" width="1400" height="410.3"/>
		</defs>
		<clipPath id="SVGID_00000104665414192799580740000006102600146213838486_">
			<use xlink:href="#SVGID_00000174587535516237845330000015178012564341173415_"  style="overflow:visible;"/>
		</clipPath>
		<g style="clip-path:url(#SVGID_00000104665414192799580740000006102600146213838486_);">
			<path class="st8" d="M769.8,255.3c-56.2,0-110.4-3-163.4-9.3c-104.9-12.5-205-37.7-314.7-79.2C191.1,128.8,78.4,75.3-62.8-1.4
				l0.8-1C79.1,74.3,191.7,127.7,292.3,165.7c109.6,41.4,209.5,66.6,314.3,79.1c222.5,26.6,466.6-6.4,788.3-68.2l0.3,1.2
				C1150,225,949.8,255.3,769.8,255.3z"/>
			
				<linearGradient id="SVGID_00000020385916785073872670000013192973660280542629_" gradientUnits="userSpaceOnUse" x1="-62.7375" y1="268.9319" x2="1395.7417" y2="268.9319" gradientTransform="matrix(1 0 0 -1 0 400)">
				<stop  offset="0" style="stop-color:#A0F4F7"/>
				<stop  offset="1" style="stop-color:#A5EBFD"/>
			</linearGradient>
			<path style="fill:url(#SVGID_00000020385916785073872670000013192973660280542629_);" d="M738.2,244.5
				c-40.2,0-78.8-1.6-116.7-4.9c-104.2-9-204.6-30.2-316.1-67C202.4,138.7,85.5,89.7-62.7,18.6l0.7-1
				C86.1,88.7,203,137.6,305.9,171.5c111.3,36.7,211.7,58,315.7,66.9c213.3,18.3,445.3-17,773.8-84.2l0.3,1.1
				c-191.4,39.2-321.7,61.6-435.7,74.9C879,239.8,806.3,244.5,738.2,244.5z"/>
			
				<linearGradient id="SVGID_00000134944864868907130560000008571228163231152052_" gradientUnits="userSpaceOnUse" x1="-62.6889" y1="263.6577" x2="1396.1694" y2="263.6577" gradientTransform="matrix(1 0 0 -1 0 400)">
				<stop  offset="0" style="stop-color:#90EEEF"/>
				<stop  offset="1" style="stop-color:#99DEFB"/>
			</linearGradient>
			<path style="fill:url(#SVGID_00000134944864868907130560000008571228163231152052_);" d="M706.9,235c-23.7,0-47.1-0.6-70.5-1.8
				C532.9,227.8,432,210.4,319,178.3C213.5,148.4,92.2,104-62.7,38.7l0.6-1C92.8,103,214,147.4,319.4,177.3
				c112.9,32,213.7,49.4,317.1,54.8c203.8,10.5,415.6-25.5,759.3-100.2l0.3,1.1C1091.7,199.1,890.6,235,706.9,235z"/>
			
				<linearGradient id="SVGID_00000147211977422397758530000005612314185786869148_" gradientUnits="userSpaceOnUse" x1="-62.65" y1="257.6347" x2="1396.5874" y2="257.6347" gradientTransform="matrix(1 0 0 -1 0 400)">
				<stop  offset="0" style="stop-color:#80E9E7"/>
				<stop  offset="1" style="stop-color:#8ED0FA"/>
			</linearGradient>
			<path style="fill:url(#SVGID_00000147211977422397758530000005612314185786869148_);" d="M673.9,226.9c-7.5,0-15-0.1-22.4-0.2
				c-103.1-1.7-204.4-15.3-318.8-42.7C224.2,158.1,98.6,118.3-62.7,58.8l0.5-1C99,117.3,224.6,157.1,333,183.1
				c114.3,27.3,215.5,40.9,318.5,42.6c97.3,1.6,200.9-7.4,326.3-28.4c115.1-19.3,245.4-47.9,418.4-87.8l0.3,1
				c-173,39.9-303.4,68.6-418.5,87.8C862.2,217.8,764.8,226.9,673.9,226.9z"/>
			
				<linearGradient id="SVGID_00000052100973782683661300000018347515609605084830_" gradientUnits="userSpaceOnUse" x1="-62.6013" y1="250.7806" x2="1397.025" y2="250.7806" gradientTransform="matrix(1 0 0 -1 0 400)">
				<stop  offset="0" style="stop-color:#70E4DF"/>
				<stop  offset="1" style="stop-color:#83C3F8"/>
			</linearGradient>
			<path style="fill:url(#SVGID_00000052100973782683661300000018347515609605084830_);" d="M641,220.6
				c-94.2,0-188.6-9.9-294.7-30.7c-111.7-22-241.7-57.2-408.9-111l0.4-0.9c167.2,53.8,297.1,89,408.7,111
				c115.6,22.7,217.2,32.4,319.9,30.5c205.2-3.9,414.1-54.9,730.2-132.3l0.3,1c-316.2,77.3-525.1,128.4-730.5,132.3
				C658,220.5,649.5,220.6,641,220.6z"/>
			
				<linearGradient id="SVGID_00000112630007131166920400000013819792976191687043_" gradientUnits="userSpaceOnUse" x1="-62.5723" y1="259.6812" x2="1397.443" y2="259.6812" gradientTransform="matrix(1 0 0 -1 0 400)">
				<stop  offset="0" style="stop-color:#60DFD7"/>
				<stop  offset="1" style="stop-color:#77B5F6"/>
			</linearGradient>
			<path style="fill:url(#SVGID_00000112630007131166920400000013819792976191687043_);" d="M606.1,216
				c-176.8,0-370.7-34.3-668.7-117.1l0.4-0.9C263.7,188.5,465,221.1,655.6,214.1c193.4-7,380.2-55.6,662.8-129
				c25.4-6.6,51.6-13.4,78.7-20.4l0.3,0.9c-27.1,7-53.3,13.8-78.7,20.4C1036,159.5,849.3,208,655.7,215.1
				C639.3,215.7,622.8,216,606.1,216z"/>
			
				<linearGradient id="SVGID_00000130617243541533557240000001950727244857941682_" gradientUnits="userSpaceOnUse" x1="-62.5333" y1="272.2326" x2="1397.8707" y2="272.2326" gradientTransform="matrix(1 0 0 -1 0 400)">
				<stop  offset="0" style="stop-color:#50D9CF"/>
				<stop  offset="1" style="stop-color:#6CA8F4"/>
			</linearGradient>
			<path style="fill:url(#SVGID_00000130617243541533557240000001950727244857941682_);" d="M568.7,213.3
				c-165.5,0-354.3-28.6-631.2-94.4l0.3-0.8C578.4,270.2,747,223.2,1247.5,83.8c47.5-13.2,96.7-26.9,150-41.5l0.3,0.8
				c-53.4,14.6-102.5,28.3-150,41.5C963.5,163.9,786.2,213.3,568.7,213.3z"/>
			
				<linearGradient id="SVGID_00000050627931501235191360000007954761172625031589_" gradientUnits="userSpaceOnUse" x1="-62.5041" y1="283.6805" x2="1398.3083" y2="283.6805" gradientTransform="matrix(1 0 0 -1 0 400)">
				<stop  offset="0" style="stop-color:#40D4C7"/>
				<stop  offset="1" style="stop-color:#609AF2"/>
			</linearGradient>
			<path style="fill:url(#SVGID_00000050627931501235191360000007954761172625031589_);" d="M526.7,212.8
				c-155.1,0-335.7-23-589.2-73.8l0.2-0.8c315.6,63.3,518.2,83.5,699.3,69.7c177.8-13.5,335.4-60.9,553.5-126.5
				c61.6-18.5,131.4-39.5,207.5-61.5l0.3,0.8c-76.1,22-145.9,43-207.5,61.5c-218.2,65.6-375.8,113-553.8,126.6
				C601.4,211.4,564.8,212.8,526.7,212.8z"/>
			
				<linearGradient id="SVGID_00000010290072405451109900000002129745386376859561_" gradientUnits="userSpaceOnUse" x1="-62.475" y1="294.0736" x2="1398.7263" y2="294.0736" gradientTransform="matrix(1 0 0 -1 0 400)">
				<stop  offset="0" style="stop-color:#30CFBF"/>
				<stop  offset="1" style="stop-color:#558DF0"/>
			</linearGradient>
			<path style="fill:url(#SVGID_00000010290072405451109900000002129745386376859561_);" d="M480.9,214.4
				c-145.3,0-317.1-17.8-543.4-55.4l0.2-0.8c309.3,51.4,516.8,65.8,694,48.3c172.5-17.1,315.8-63.9,514.1-128.6
				c73.8-24.1,157.4-51.4,252.7-80.4l0.3,0.7c-95.2,29-178.8,56.3-252.7,80.4c-198.3,64.8-341.6,111.6-514.3,128.7
				C584.2,212,534.3,214.4,480.9,214.4z"/>
			
				<linearGradient id="SVGID_00000103965494821910524500000015329073773294774433_" gradientUnits="userSpaceOnUse" x1="-62.4653" y1="303.1736" x2="1399.1348" y2="303.1736" gradientTransform="matrix(1 0 0 -1 0 400)">
				<stop  offset="0" style="stop-color:#20CAB7"/>
				<stop  offset="1" style="stop-color:#4A7FEF"/>
			</linearGradient>
			<path style="fill:url(#SVGID_00000103965494821910524500000015329073773294774433_);" d="M425.5,218.6
				c-133.3,0-289.6-12.9-487.9-39.5l0.1-0.7c308,41.4,514.8,49.7,691.3,27.8c168.6-20.9,300.3-67.8,482.6-132.6
				c82.6-29.4,176.3-62.8,287.3-98.4l0.3,0.7c-111,35.6-204.6,69-287.3,98.4c-182.3,64.9-314,111.8-482.8,132.7
				C566.1,214.6,499.3,218.6,425.5,218.6z"/>
			
				<linearGradient id="SVGID_00000165221601397075018710000003417270147165971607_" gradientUnits="userSpaceOnUse" x1="-62.4264" y1="311.1069" x2="1399.5625" y2="311.1069" gradientTransform="matrix(1 0 0 -1 0 400)">
				<stop  offset="0" style="stop-color:#10C4AF"/>
				<stop  offset="1" style="stop-color:#3E72ED"/>
			</linearGradient>
			<path style="fill:url(#SVGID_00000165221601397075018710000003417270147165971607_);" d="M362.5,225.1c-7,0-14.1,0-21.3-0.1
				c-113.8-1-245.8-9.4-403.6-26l0.1-0.7c157.8,16.5,289.8,25,403.6,26c107.4,0.9,201.4-5,287.5-17.9
				c165.8-24.9,294.6-75,457.5-138.4c88.8-34.5,189.4-73.7,313-115.4l0.3,0.6C1276.1-5,1175.4,34.2,1086.6,68.7
				c-163,63.4-291.8,113.5-457.7,138.4C548.5,219.2,461.2,225.1,362.5,225.1z"/>
			
				<linearGradient id="SVGID_00000168807323881444737710000018167795075138641820_" gradientUnits="userSpaceOnUse" x1="-62.4264" y1="317.6743" x2="1399.9709" y2="317.6743" gradientTransform="matrix(1 0 0 -1 0 400)">
				<stop  offset="0" style="stop-color:#00BFA7"/>
				<stop  offset="1" style="stop-color:#3364EB"/>
			</linearGradient>
			<path style="fill:url(#SVGID_00000168807323881444737710000018167795075138641820_);" d="M286.9,234.4
				c-102.2,0-217.2-5.1-349.3-15.3l0.1-0.6c304.6,23.5,518.4,20,693.2-11.1c163.9-29.2,284.7-80.6,437.7-145.6
				c92.8-39.5,198-84.2,331.2-131.6l0.3,0.6c-133.2,47.4-238.4,92.1-331.1,131.6C915.8,127.4,795,178.8,631,208
				C532,225.7,420.4,234.4,286.9,234.4z"/>
		</g>
	</g>
	<g>
		<defs>
			<rect id="SVGID_00000080173144562105529270000009980454344704369037_" y="0.7" width="1400" height="410.3"/>
		</defs>
		<clipPath id="SVGID_00000167377513583443695240000011825831129823339418_">
			<use xlink:href="#SVGID_00000080173144562105529270000009980454344704369037_"  style="overflow:visible;"/>
		</clipPath>
		<g style="clip-path:url(#SVGID_00000167377513583443695240000011825831129823339418_);">
			<path class="st21" d="M621.7,293.4c-161.2,0-362-16.8-617.5-58.4l0.3-1.2c870.8,141.8,1107.4-4.7,1297.5-122.4
				c33-20.4,64.2-39.7,97.3-56.7l0.7,1.1c-33,17-64.2,36.3-97.2,56.7C1168.3,195.7,1010.4,293.4,621.7,293.4z"/>
			<path class="st22" d="M640.4,288.9c-176,0-386.5-21.6-636.6-65.2l0.3-1.1c364.1,63.5,644.1,80.4,856.1,51.7
				c185.3-25.1,291.2-79.6,393.7-132.3c48.3-24.8,93.8-48.3,145.5-67.2l0.5,1.1c-51.6,18.9-97.1,42.3-145.3,67.1
				c-102.6,52.8-208.6,107.4-394.2,132.4C793.9,284.4,720.7,288.9,640.4,288.9z"/>
			<path class="st23" d="M657.9,284.8c-177.7,0-393.6-24-654.4-72.5l0.3-1.1c345.2,64.2,611.7,85.5,814.8,65
				c178.8-18,285.8-64.9,389.2-110.2c61.9-27.1,120.4-52.7,191.7-71.2l0.4,1.1c-71.2,18.4-129.6,44-191.5,71.1
				c-103.6,45.3-210.7,92.2-389.7,110.3C768.9,282.3,715.4,284.8,657.9,284.8z"/>
			<path class="st24" d="M673.6,281.1c-178.3,0-399.1-26.5-670.6-80.2l0.3-1c329.3,65.2,583.9,90.2,778.5,76.6
				c172.3-12.1,278.9-52.2,382.1-91.1c74-27.9,143.9-54.2,235.6-70.5l0.2,1c-91.6,16.3-161.4,42.6-235.4,70.4
				c-103.2,38.9-209.9,79.1-382.4,91.2C747.7,279.9,711.6,281.1,673.6,281.1z"/>
			<path class="st25" d="M685.8,277.9c-72.6,0-151.7-4.8-240.1-14.5c-128.9-14.2-273.9-38.3-443.1-73.9l0.3-1
				c169.2,35.5,314,59.7,442.9,73.9c114.7,12.6,213.9,16.9,303.4,13.2c166-6.9,271.3-41.2,373.2-74.3
				c80.8-26.3,164.3-53.5,277.1-66.4l0.1,1c-112.7,12.9-196.1,40-276.9,66.3c-102,33.2-207.4,67.5-373.6,74.4
				C728.6,277.5,707.5,277.9,685.8,277.9z"/>
			<path class="st26" d="M698.5,275.1c-80.4,0-169.2-6.4-270.5-19.4c-123.6-15.9-262.9-41.2-425.7-77.5l0.3-0.9
				c162.8,36.2,302.1,61.6,425.6,77.4c110.3,14.2,205.8,20.5,291.7,19.2c159.9-2.3,258.8-30,363.4-59.4c89.5-25.1,182-51,316.3-59.5
				l0.1,0.9c-134.2,8.5-226.6,34.4-316.1,59.5c-104.7,29.4-203.6,57.1-363.7,59.4C712.8,275,705.6,275.1,698.5,275.1z"/>
			<path class="st27" d="M710.1,272.6c-5.6,0-11.2,0-16.9-0.1c-173.7-2.1-393.4-35.6-691.4-105.7l0.3-0.9
				c298,70,517.6,103.6,691.2,105.7c154.1,1.8,250.7-21.4,353.1-45.9c97-23.2,197.3-47.3,353.3-50.6l0,0.9
				c-155.9,3.3-256.1,27.3-353,50.6C948,250.2,854.6,272.6,710.1,272.6z"/>
			<path class="st28" d="M720.3,270.7c-16.4,0-33.4-0.3-51.3-1c-166.3-6.2-378.5-42.5-667.6-114.2l0.3-0.8
				c289.1,71.7,501.2,108,667.4,114.2c148.5,5.6,242.7-13.5,342.5-33.6c103.4-20.9,210.3-42.5,388.1-40l0,0.8
				c-177.7-2.5-284.5,19.1-387.8,39.9C923.9,253.8,840.3,270.7,720.3,270.7z"/>
			<path class="st29" d="M730.2,269.1c-149.8,0-358.2-28.2-729.3-125l0.3-0.7c614.5,160.4,782.8,132.4,977.6,100
				c108.8-18.1,221.3-36.8,420.8-28l0,0.8c-199.4-8.8-311.8,9.9-420.6,28C901.7,257,828.6,269.1,730.2,269.1z"/>
			<path class="st30" d="M738.6,268.2c-33.9,0-70.7-1.5-111.9-5.2C474.5,249.6,275.5,208.2,0.6,132.7l0.3-0.7
				c274.9,75.4,473.8,116.8,626,130.3c137.9,12.2,227,0.5,321.3-11.9c108.1-14.2,230.6-30.4,451.5-15l-0.1,0.7
				c-220.8-15.4-343.3,0.7-451.3,15C882.1,259.9,818.4,268.2,738.6,268.2z"/>
			<path class="st31" d="M748.9,268c-41.4,0-86.8-2.3-140.5-8.5C462.9,242.9,269.7,199,0.2,121.4l0.2-0.6
				c269.4,77.6,462.7,121.5,608.1,138.1c132.9,15.2,215.4,7.1,311-2.2c111.8-11,238.5-23.4,480.2-1.1l-0.1,0.7
				c-241.6-22.3-368.2-9.8-480,1.1C862.5,262.9,810.1,268,748.9,268z"/>
			<path class="st32" d="M1399.6,276.3c-261.5-29.2-391.7-20.8-506.6-13.4c-92.9,6-173.1,11.2-301.3-6.9
				C453.1,236.5,265,190.1-0.2,110l0.2-0.6c265.2,80.1,453.3,126.4,591.8,145.9c128.1,18,208.2,12.9,301.1,6.9
				c114.9-7.4,245.2-15.8,506.7,13.4L1399.6,276.3z"/>
		</g>
	</g>
</g>
</svg>
