<?xml version="1.0" encoding="utf-8"?>
<!-- Generator: Adobe Illustrator 25.4.1, SVG Export Plug-In . SVG Version: 6.00 Build 0)  -->
<svg version="1.1" id="Capa_1" xmlns="http://www.w3.org/2000/svg" xmlns:xlink="http://www.w3.org/1999/xlink" x="0px" y="0px"
	 viewBox="0 0 100 100" style="enable-background:new 0 0 100 100;" xml:space="preserve">
<style type="text/css">
	.st0{fill:#0F3375;}
	.st1{fill:#2382F7;}
</style>
<g>
	<path class="st0" d="M8.7,76.1c-0.8,0-1.3-0.1-1.4-0.1l-0.6-1.8L7.2,76c-2.7-0.7-4.7-2.2-5.9-4.5c-2.9-5.6,0.2-13.8,0.4-14.1
		l2.2-5.6l1,5.9c0.6,3.4,3.8,3.5,3.9,3.5l0,0l0,0c0.1,0,0.3,0,0.4,0c9,0,23.8-19.8,28.8-27.5c0.4-0.6,6.1-9.8,13.5-9.8
		c1.1,0,2.2,0.2,3.3,0.6c3.7,1.4,5.6,4.5,5.7,8.9c0,0.8,0,1.6-0.1,2.3c1.5-0.5,2.6-0.6,3.2-0.6c0.2,0,0.4,0,0.5,0
		c2.1,0.1,3.6,1.5,4.6,3.1c3.5-3.2,7.6-3.4,8.1-3.4l0,0c2.4,0,4.3,0.9,5.7,2.6c3.5,4.3,2.1,12.3,1.8,13.5c-0.9,7.4-0.2,11,0.5,12.8
		c0.6,1.4,1.3,1.7,1.4,1.7c5.3-0.1,6.7-7.5,6.7-7.6l0,0l0,0c1-4.2-0.2-5.8-1.1-6l-0.2,0l-0.1-0.1c-0.1,0-0.2-0.1-0.3-0.1
		c-0.8,0-1.7,1-2,1.4l-2.9-1.5c1.7-4.6,4.4-5.1,5.5-5.1c0.2,0,0.4,0,0.6,0c2.3,0.2,4.2,1.1,5.5,2.8c2.8,3.5,2,9,2,9.3
		C97.6,75,86.7,75.8,84.6,75.8c-0.2,0-0.4,0-0.5,0c-3.6-0.1-6.4-1.5-8.4-4c-5.2-6.8-2.3-19.7-2.1-20.4c0.7-3,0.5-4.3,0.4-4.7
		c0,0-0.1,0-0.1,0c-1.2,0-3.5,2.6-4.6,4.4l-8.6,14.2l-3-1.2l3.8-15c0.5-2.3-0.3-3.3-0.4-3.5c-0.2-0.1-0.4-0.1-0.5-0.1
		c-0.9,0-2.4,1.6-3,2.8L43.9,73.6l-3-1.2l8.3-28.9l0-0.1c0.6-1.6,1.1-4.2,0.3-4.9c0,0,0,0-0.1-0.1c-0.5,0.1-1.7,1.3-2.6,2.9l0,0.1
		L39,53.9c-5.6,8.7-11.7,15-18.3,18.7C15.2,75.7,10.8,76.1,8.7,76.1z"/>
	<path class="st1" d="M4.5,58.4c0,0-5.4,14,4.5,16.5c0,0,14.9,2.3,30-21.4L46.8,41c0,0,3.1-5.4,5.3-3.1c1.8,1.9,0,6.6,0,6.6
		l-8.3,28.8l13.8-25.6c0,0,3-5.2,5.9-3.1c0,0,1.8,1.4,1,5.2l-3.8,15l8.6-14.2c0,0,3.7-6,6.6-5.1c0,0,2.2-0.4,0.6,6.6
		c0,0-5.2,22.1,9,22.5c0,0,11.7,1.1,14.1-15.9c0,0,1.4-9.7-6.1-10.2c0,0-2.6-0.7-4.3,4c0,0,1.9-2.8,4.2-2c0,0,4.1,0.7,2.4,8
		c0,0-1.6,8.9-8.4,8.9c0,0-5.6,0.1-3.5-16.4c0,0,2.9-14.2-5.9-14.2c0,0-5.3-0.1-8.6,4.8c0,0-1.1-4.4-4.2-4.5c0,0-2.2-0.4-5.9,1.9
		c0,0,3.5-9.8-3.8-12.6c-7.8-3-14.8,8.5-14.8,8.5S21.9,64.1,10,63.2C10,63.2,5.3,63.2,4.5,58.4z"/>
</g>
</svg>
