<?xml version="1.0" encoding="utf-8"?>
<!-- Generator: Adobe Illustrator 25.4.1, SVG Export Plug-In . SVG Version: 6.00 Build 0)  -->
<svg version="1.1" id="Capa_1" xmlns="http://www.w3.org/2000/svg" xmlns:xlink="http://www.w3.org/1999/xlink" x="0px" y="0px"
	 viewBox="0 0 60 30" style="enable-background:new 0 0 60 30;" xml:space="preserve">
<style type="text/css">
	.st0{fill:#FFFFFF;}
</style>
<g>
	<path class="st0" d="M6.2,30c-0.5,0-0.8-0.1-0.8-0.1l-0.4-1l0.3,1c-1.6-0.4-2.8-1.3-3.4-2.6c-1.7-3.2,0.1-8,0.2-8.2L3.4,16l0.5,3.4
		c0.3,2,2.2,2,2.2,2h0.1h0.1c0.1,0,0.1,0,0.2,0c5.2,0,13.7-11.4,16.6-15.8C23.3,5.3,26.6,0,30.8,0c0.7,0,1.3,0.1,1.9,0.4
		c2.1,0.8,3.2,2.6,3.3,5.1c0,0.5,0,1-0.1,1.3c0.8-0.3,1.5-0.4,1.9-0.4c0.1,0,0.2,0,0.3,0c1.2,0.1,2.1,0.9,2.6,1.8
		c2-1.9,4.4-1.9,4.7-1.9l0,0c1.4,0,2.5,0.5,3.3,1.4c2,2.5,1.2,7.1,1,7.8c-0.5,4.3-0.1,6.4,0.3,7.3c0.4,0.8,0.8,1,0.8,1
		c3.1-0.1,3.8-4.3,3.8-4.3l0,0l0,0c0.5-2.4-0.1-3.3-0.7-3.5h-0.1h-0.1c-0.1,0-0.1,0-0.2,0c-0.5,0-1,0.6-1.1,0.8L50.9,16
		c1-2.7,2.5-2.9,3.2-2.9c0.1,0,0.2,0,0.3,0c1.3,0.1,2.4,0.7,3.2,1.6c1.6,2,1.2,5.2,1.1,5.3c-1.3,9.5-7.6,10-8.8,10
		c-0.1,0-0.2,0-0.3,0c-2-0.1-3.7-0.8-4.8-2.3c-3-3.9-1.3-11.3-1.2-11.8c0.4-1.7,0.3-2.5,0.2-2.7h-0.1c-0.7,0-2,1.5-2.6,2.5l-4.9,8.2
		l-1.7-0.7l2.2-8.7c0.3-1.3-0.1-1.9-0.2-2c-0.1-0.1-0.2-0.1-0.2-0.1c-0.5,0-1.3,0.9-1.7,1.6l-7.9,14.6l-1.7-0.7l4.8-16.6v-0.1
		c0.4-0.9,0.6-2.4,0.2-2.8c0,0,0,0-0.1-0.1c-0.3,0.1-1,0.8-1.5,1.7l0,0l-4.5,7.2c-3.2,5-6.7,8.6-10.6,10.7C9.9,29.8,7.5,30,6.2,30z"
		/>
	<path class="st0" d="M3.8,19.8c0,0-3.1,8,2.6,9.5c0,0,8.6,1.3,17.3-12.3l4.5-7.2c0,0,1.8-3.1,3.1-1.8c1.1,1.1,0,3.8,0,3.8
		l-4.7,16.6l7.9-14.7c0,0,1.7-3,3.4-1.8c0,0,1.1,0.8,0.6,3l-2.2,8.6l4.9-8.2c0,0,2.2-3.5,3.8-2.9c0,0,1.3-0.2,0.4,3.8
		c0,0-3,12.7,5.2,12.9c0,0,6.7,0.6,8.1-9.1c0,0,0.8-5.6-3.5-5.9c0,0-1.5-0.4-2.5,2.3c0,0,1.1-1.6,2.4-1.1c0,0,2.3,0.4,1.4,4.6
		c0,0-0.9,5.1-4.8,5.1c0,0-3.2,0.1-2-9.4c0,0,1.7-8.2-3.4-8.2c0,0-3.1-0.1-4.9,2.8c0,0-0.7-2.5-2.5-2.6c0,0-1.3-0.2-3.4,1.1
		c0,0,2-5.6-2.2-7.3c-4.4-1.8-8.4,4.9-8.4,4.9S13.8,23.1,6.9,22.6C6.9,22.6,4.3,22.6,3.8,19.8z"/>
</g>
</svg>
