<?xml version="1.0" encoding="utf-8"?>
<!-- Generator: Adobe Illustrator 25.4.1, SVG Export Plug-In . SVG Version: 6.00 Build 0)  -->
<svg version="1.1" id="Capa_1" xmlns="http://www.w3.org/2000/svg" xmlns:xlink="http://www.w3.org/1999/xlink" x="0px" y="0px"
	 viewBox="0 0 50 10" style="enable-background:new 0 0 50 10;" xml:space="preserve">
<style type="text/css">
	.st0{fill:#FFFFFF;}
	.st1{clip-path:url(#SVGID_00000123416258579767455470000007656053290561784228_);}
	.st2{fill:#0F3375;stroke:#0F3375;stroke-width:1.5;stroke-miterlimit:10;}
	.st3{clip-path:url(#SVGID_00000123416258579767455470000007656053290561784228_);fill:none;}
</style>
<path class="st0" d="M9,3"/>
<g>
	<defs>
		<rect id="SVGID_1_" y="-5" width="50" height="20"/>
	</defs>
	<clipPath id="SVGID_00000114032268826516202530000016163513991473738655_">
		<use xlink:href="#SVGID_1_"  style="overflow:visible;"/>
	</clipPath>
	<g style="clip-path:url(#SVGID_00000114032268826516202530000016163513991473738655_);">
		<path class="st2" d="M211.9,8.6c-2.5,0-3.7-1.8-4.8-3.3C206,3.8,205,2.4,203,2.4s-3,1.4-4.1,2.9c-1.1,1.5-2.4,3.3-4.8,3.3
			c-2.5,0-3.7-1.8-4.8-3.3c-1.1-1.5-2.1-2.9-4.1-2.9c-2,0-3,1.4-4.1,2.9c-1.1,1.5-2.4,3.3-4.8,3.3c-2.5,0-3.7-1.8-4.8-3.3
			c-1.1-1.5-2.1-2.9-4.1-2.9c-2,0-3,1.4-4.1,2.9c-1.1,1.5-2.4,3.3-4.8,3.3c-2.5,0-3.7-1.8-4.8-3.3c-1.1-1.5-2.1-2.9-4.1-2.9
			c-2,0-3,1.4-4.1,2.9c-1.1,1.5-2.4,3.3-4.8,3.3c-2.5,0-3.7-1.8-4.8-3.3c-1.1-1.5-2.1-2.9-4.1-2.9c-2,0-3,1.4-4.1,2.9
			c-1.1,1.5-2.4,3.3-4.8,3.3c-2.5,0-3.7-1.8-4.8-3.3c-1.1-1.5-2.1-2.9-4.1-2.9c-2,0-3,1.4-4.1,2.9c-1.1,1.5-2.4,3.3-4.8,3.3
			c-2.5,0-3.7-1.8-4.8-3.3c-1.1-1.5-2.1-2.9-4.1-2.9c-2,0-3,1.4-4.1,2.9c-1.1,1.5-2.4,3.3-4.8,3.3c-2.5,0-3.7-1.8-4.8-3.3
			C81,3.8,80,2.4,78,2.4c-2,0-3,1.4-4.1,2.9c-1.1,1.5-2.4,3.3-4.8,3.3c-2.5,0-3.7-1.8-4.8-3.3c-1.1-1.5-2.1-2.9-4.1-2.9
			c-2,0-3,1.4-4.1,2.9c-1.1,1.5-2.4,3.3-4.8,3.3c-2.5,0-3.7-1.8-4.8-3.3c-1.1-1.5-2.1-2.9-4.1-2.9c-2,0-3,1.4-4.1,2.9
			c-1.1,1.5-2.4,3.3-4.8,3.3c-2.5,0-3.7-1.8-4.8-3.3c-1.1-1.5-2.1-2.9-4.1-2.9c-2,0-3,1.4-4.1,2.9c-1.1,1.5-2.4,3.3-4.8,3.3
			c-2.5,0-3.7-1.8-4.8-3.3C9.6,3.8,8.6,2.4,6.6,2.4c-2,0-3,1.4-4.1,2.9C1.4,6.8,0.1,8.6-2.3,8.6c-2.5,0-3.7-1.8-4.8-3.3
			c-1.1-1.5-2.1-2.9-4.1-2.9c-2,0-3,1.4-4.1,2.9c-1.1,1.5-2.4,3.3-4.8,3.3c-2.5,0-3.7-1.8-4.8-3.3c-1.1-1.5-2.1-2.9-4.1-2.9
			c-2,0-3,1.4-4.1,2.9c-1.1,1.5-2.4,3.3-4.8,3.3c-2.5,0-3.7-1.8-4.8-3.3C-43.9,3.8-45,2.4-47,2.4c-2,0-3,1.4-4.1,2.9
			c-1.1,1.5-2.4,3.3-4.8,3.3c-2.5,0-3.7-1.8-4.8-3.3c-1.1-1.5-2.1-2.9-4.1-2.9c-2,0-3,1.4-4.1,2.9c-1.1,1.5-2.4,3.3-4.8,3.3
			c-2.5,0-3.7-1.8-4.8-3.3c-1.1-1.5-2.1-2.9-4.1-2.9c-2,0-3,1.4-4.1,2.9c-1.1,1.5-2.4,3.3-4.8,3.3c-2.5,0-3.7-1.8-4.8-3.3
			c-1.1-1.5-2.1-2.9-4.1-2.9c-2,0-3,1.4-4.1,2.9c-1.1,1.5-2.4,3.3-4.8,3.3c-2.5,0-3.7-1.8-4.8-3.3c-1.1-1.5-2.1-2.9-4.1-2.9
			c-2,0-3,1.4-4.1,2.9c-1.1,1.5-2.4,3.3-4.8,3.3c-2.5,0-3.7-1.8-4.8-3.3c-1.1-1.5-2.1-2.9-4.1-2.9c-2,0-3,1.4-4.1,2.9
			c-1.1,1.5-2.4,3.3-4.8,3.3c-2.5,0-3.7-1.8-4.8-3.3c-1.1-1.5-2.1-2.9-4.1-2.9c-2,0-3,1.4-4.1,2.9c-1.1,1.5-2.4,3.3-4.8,3.3
			c-2.5,0-3.7-1.8-4.8-3.3c-1.1-1.5-2.1-2.9-4.1-2.9c-0.3,0-0.5-0.2-0.5-0.5c0-0.3,0.2-0.5,0.5-0.5c2.5,0,3.7,1.8,4.8,3.3
			c1.1,1.5,2.1,2.9,4.1,2.9s3-1.4,4.1-2.9c1.1-1.5,2.4-3.3,4.8-3.3c2.5,0,3.7,1.8,4.8,3.3c1.1,1.5,2.1,2.9,4.1,2.9
			c2,0,3-1.4,4.1-2.9c1.1-1.5,2.4-3.3,4.8-3.3c2.5,0,3.7,1.8,4.8,3.3c1.1,1.5,2.1,2.9,4.1,2.9c2,0,3-1.4,4.1-2.9
			c1.1-1.5,2.4-3.3,4.8-3.3s3.7,1.8,4.8,3.3c1.1,1.5,2.1,2.9,4.1,2.9c2,0,3-1.4,4.1-2.9c1.1-1.5,2.4-3.3,4.8-3.3
			c2.5,0,3.7,1.8,4.8,3.3c1.1,1.5,2.1,2.9,4.1,2.9c2,0,3-1.4,4.1-2.9c1.1-1.5,2.4-3.3,4.8-3.3c2.5,0,3.7,1.8,4.8,3.3
			c1.1,1.5,2.1,2.9,4.1,2.9c2,0,3-1.4,4.1-2.9c1.1-1.5,2.4-3.3,4.8-3.3c2.5,0,3.7,1.8,4.8,3.3c1.1,1.5,2.1,2.9,4.1,2.9
			c2,0,3-1.4,4.1-2.9c1.1-1.5,2.4-3.3,4.8-3.3c2.5,0,3.7,1.8,4.8,3.3C-41,6.2-40,7.6-38,7.6c2,0,3-1.4,4.1-2.9
			c1.1-1.5,2.4-3.3,4.8-3.3c2.5,0,3.7,1.8,4.8,3.3c1.1,1.5,2.1,2.9,4.1,2.9c2,0,3-1.4,4.1-2.9c1.1-1.5,2.4-3.3,4.8-3.3
			c2.5,0,3.7,1.8,4.8,3.3c1.1,1.5,2.1,2.9,4.1,2.9c2,0,3-1.4,4.1-2.9c1.1-1.5,2.4-3.3,4.8-3.3c2.5,0,3.7,1.8,4.8,3.3
			c1.1,1.5,2.1,2.9,4.1,2.9c2,0,3-1.4,4.1-2.9c1.1-1.5,2.4-3.3,4.8-3.3c2.5,0,3.7,1.8,4.8,3.3c1.1,1.5,2.1,2.9,4.1,2.9
			c2,0,3-1.4,4.1-2.9c1.1-1.5,2.4-3.3,4.8-3.3c2.5,0,3.7,1.8,4.8,3.3c1.1,1.5,2.1,2.9,4.1,2.9c2,0,3-1.4,4.1-2.9
			c1.1-1.5,2.4-3.3,4.8-3.3c2.5,0,3.7,1.8,4.8,3.3c1.1,1.5,2.1,2.9,4.1,2.9c2,0,3-1.4,4.1-2.9c1.1-1.5,2.4-3.3,4.8-3.3
			c2.5,0,3.7,1.8,4.8,3.3c1.1,1.5,2.1,2.9,4.1,2.9c2,0,3-1.4,4.1-2.9c1.1-1.5,2.4-3.3,4.8-3.3c2.5,0,3.7,1.8,4.8,3.3
			c1.1,1.5,2.1,2.9,4.1,2.9c2,0,3-1.4,4.1-2.9c1.1-1.5,2.4-3.3,4.8-3.3c2.5,0,3.7,1.8,4.8,3.3c1.1,1.5,2.1,2.9,4.1,2.9
			c2,0,3-1.4,4.1-2.9c1.1-1.5,2.4-3.3,4.8-3.3c2.5,0,3.7,1.8,4.8,3.3c1.1,1.5,2.1,2.9,4.1,2.9c2,0,3-1.4,4.1-2.9
			c1.1-1.5,2.4-3.3,4.8-3.3c2.5,0,3.7,1.8,4.8,3.3c1.1,1.5,2.1,2.9,4.1,2.9c2,0,3-1.4,4.1-2.9c1.1-1.5,2.4-3.3,4.8-3.3
			c2.5,0,3.7,1.8,4.8,3.3c1.1,1.5,2.1,2.9,4.1,2.9c2,0,3-1.4,4.1-2.9c1.1-1.5,2.4-3.3,4.8-3.3c2.5,0,3.7,1.8,4.8,3.3
			c1.1,1.5,2.1,2.9,4.1,2.9c2,0,3-1.4,4.1-2.9c1.1-1.5,2.4-3.3,4.8-3.3c2.5,0,3.7,1.8,4.8,3.3c1.1,1.5,2.1,2.9,4.1,2.9
			c0.3,0,0.5,0.2,0.5,0.5C212.3,8.4,212.1,8.6,211.9,8.6z"/>
	</g>
	
		<rect x="-0.7" y="-0.8" style="clip-path:url(#SVGID_00000114032268826516202530000016163513991473738655_);fill:none;" width="51.4" height="11.6"/>
</g>
</svg>
